<svg xmlns="http://www.w3.org/2000/svg" width="512" height="512"><g fill="#D45731"><path d="M34.96 396.7C33 392.4 32 387.73 32 383.02v-9.74c-.02-83.32 13.13-166.1 38.95-245.3h175.18c-7.35 23.08-13.7 46.67-18.95 70.27l15.62 3.46c5.5-24.8 12.3-49.56 20.16-73.73H280c17.66-.02 31.98-14.34 32-32V72c0-4.42-3.58-8-8-8h-40c.02-17.66 14.34-31.98 32-32h1.45c14.42.02 27.05 9.67 30.87 23.58l11.77 43.17c2.78 10.23 5.4 20.68 7.8 31.04l15.58-3.6c-2.43-10.56-5.1-21.22-7.95-31.66l-11.77-43.17c-5.73-20.86-24.68-35.33-46.3-35.37H80c-26.5.03-47.97 21.5-48 48v32c.02 14.04 9.17 26.44 22.59 30.59-25.6 79.72-38.62 162.95-38.6 246.7v9.73c0 7 1.5 13.92 4.4 20.28l14.56-6.6zM296 80v16c0 8.84-7.16 16-16 16s-16-7.16-16-16V80h32zM48 96V64c.02-17.66 14.34-31.98 32-32h180.25C252.35 40.8 248 52.2 248 64v32c0 5.62 1.48 11.14 4.3 16H64c-8.83 0-16-7.17-16-16zM417.82 228.5l-3.64 15.57C462.76 255.43 480 270.52 480 280c0 8.14-11.56 17.6-32.94 25.95-3.73-11.9-18.76-21.74-44.83-29.3L397.77 292c22.22 6.46 33 14.24 34.13 19.16C400.1 320.84 353.7 328 296 328s-104.11-7.16-135.9-16.84c1.6-7.55 24.41-20.37 73-27.08l-2.2-15.85c-24.37 3.37-45.08 8.58-59.9 15.1-14.6 6.4-23.32 14-26.06 22.62C123.56 297.6 112 288.15 112 280c0-3.37 2.75-15.35 38.12-27.94 26.94-9.58 64.72-16.28 106.37-18.86l-1-15.97c-43.1 2.67-82.43 9.68-110.75 19.76C104.45 251.3 96 268.3 96 280c0 16.85 3.12 33.56 9.24 49.27l16.2 41.63 14.9-5.8-16.2-41.63c-1.8-4.7-3.34-9.52-4.56-14.4 10.26 6.84 24.46 12.97 42.42 18.2 36.97 10.8 85.98 16.73 138 16.73 52.02 0 101.03-5.94 138-16.72 17.96-5.24 32.17-11.37 42.43-18.22-1.23 4.9-2.76 9.7-4.58 14.4l-27.47 70.64c-2.6 6.7-6.2 12.96-10.65 18.6l12.54 9.93c5.45-6.9 9.84-14.55 13.02-22.73l27.46-70.63c6.12-15.7 9.25-32.42 9.24-49.27 0-28.9-48.98-44.68-78.18-51.5zM354.3 166.57c-39.28 14.3-71.64 43.05-90.43 80.4L240.84 293l14.3 7.16 23.04-46.03c15.97-31.73 42.82-56.66 75.65-70.22.4 1.57.92 3.1 1.56 4.57-22.08 18.58-41.9 43.9-56.3 72.03l-23.54 45.75 14.22 7.32 23.56-45.77c13.35-26.1 31.63-49.54 51.92-66.73.9.68 1.83 1.3 2.8 1.9 1.05.62 2.16 1.2 3.3 1.7-3.2 6-6.55 12.23-10.03 18.7-8.73 16.3-17.7 33.18-26.97 50.66l-18.14 34.22 14.14 7.5 18.15-34.25c9.2-17.5 18.2-34.34 26.93-50.56 4.14-7.72 8.1-15.14 11.86-22.18 1.63 27.4-4.5 54.72-17.68 78.8l-11.24 20.6 14.05 7.67 11.23-20.6c15.7-28.67 22.36-61.43 19.1-93.96 3.27-2.4 6.02-5.4 8.13-8.84l63.66-104.2c9.02-14.76 4.36-34.04-10.4-43.05-14.76-9.02-34.03-4.36-43.05 10.4l-63.67 104.2c-1.3 2.12-2.35 4.4-3.12 6.8zm16.8 1.54l63.66-104.2c4.4-7.2 13.84-9.5 21.07-5.1s9.5 13.85 5.1 21.07c0 0 0 .02-.02.02l-63.66 104.2c-4.4 7.2-13.84 9.5-21.06 5.1s-9.5-13.85-5.1-21.07c0 0 0-.02 0-.02zM414.26 417.9c-6.2-5.65-14.5-8.44-22.9-7.7l-7.54.7C373.66 394.2 355.54 384 336 384H104c-19.55 0-37.68 10.2-47.84 26.9l-7.53-.7c-16.46-1.5-31 10.64-32.5 27.1-1.5 16.45 10.62 31 27.08 32.5.9.08 1.82.12 2.73.12.9 0 1.8-.04 2.7-.12l7.53-.7c10.2 16.66 28.3 26.83 47.84 26.9h232c14.86.04 29.12-5.86 39.6-16.4 3.15-3.15 5.93-6.68 8.25-10.5l7.54.7c.9.08 1.8.12 2.7.12 16.53-.02 29.92-13.42 29.9-29.95 0-8.4-3.54-16.4-9.74-22.06zM47.18 453.87c-7.66.7-14.43-4.95-15.12-12.6-.7-7.66 4.95-14.43 12.6-15.12.4-.04.8-.06 1.2-.06.45 0 .88.02 1.32.06l48.16 4.38c5.24.47 9.1 5.1 8.62 10.34-.4 4.58-4.04 8.2-8.62 8.62l-48.16 4.38zm27.74 13.54l21.87-1.98c14.03-1.22 24.43-13.58 23.22-27.62-1.07-12.36-10.87-22.16-23.23-23.22l-21.92-2c.27-.28.55-.58.84-.87 15.62-15.6 40.95-15.6 56.57.02 15.6 15.62 15.6 40.95-.02 56.57-7.5 7.5-17.67 11.7-28.28 11.7-11-.04-21.52-4.6-29.08-12.6zm289.36.9c-7.48 7.5-17.67 11.73-28.28 11.7H143.14c22.1-21.55 22.53-56.92.98-79-.32-.35-.65-.68-.98-1H336c22.1 0 40 17.9 40 40 0 10.6-4.22 20.78-11.72 28.3zm29.83-14.38c-.42 0-.86-.02-1.28-.06l-2.48-.22c2.22-8.96 2.2-18.32-.03-27.27l2.52-.23c7.66-.7 14.43 4.94 15.12 12.6.7 7.66-4.94 14.43-12.6 15.12-.4.04-.82.06-1.23.06z"/></g></svg>