<svg id="Layer_1" data-name="Layer 1" xmlns="http://www.w3.org/2000/svg" viewBox="0 0 115.28 104.07"><path d="M30.4,39.55H83A15.48,15.48,0,0,1,98.45,55V87.51a0,0,0,0,1,0,0H14.92a0,0,0,0,1,0,0V55A15.48,15.48,0,0,1,30.4,39.55Z" style="fill:none;stroke:#d45831;stroke-linecap:round;stroke-linejoin:round;stroke-width:3.5px"/><polygon points="4.58 87.51 108.66 87.51 102.09 97.73 11.15 97.73 4.58 87.51" style="fill:none;stroke:#d45831;stroke-linecap:round;stroke-linejoin:round;stroke-width:3.5px"/><path d="M14.92,68c6.67-14.52,22.38-14.52,26.87,0C45.16,54.76,65,51.51,71.68,68c2.35-14.86,20-15.21,26.77,0" style="fill:none;stroke:#d45831;stroke-linecap:round;stroke-linejoin:round;stroke-width:3.5px"/><polygon points="60.48 39.55 53.31 39.55 53.31 23.69 60.48 23.69 60.48 32.8 60.48 39.55" style="fill:none;stroke:#d45831;stroke-linecap:round;stroke-linejoin:round;stroke-width:3.5px"/><line x1="59.47" y1="33.58" x2="53.8" y2="30.89" style="fill:none;stroke:#d45831;stroke-linecap:round;stroke-linejoin:round;stroke-width:3.5px"/><line x1="56.69" y1="23.69" x2="56.69" y2="17.51" style="fill:none;stroke:#d45831;stroke-linecap:round;stroke-linejoin:round;stroke-width:3.5px"/><path d="M56.63,5.4q9.62,12.47.06,14.73C49.34,19.35,51.43,13.25,56.63,5.4Z" style="fill:none;stroke:#d45831;stroke-linecap:round;stroke-linejoin:round;stroke-width:3.5px"/></svg>