<svg id="Layer_1" data-name="Layer 1" xmlns="http://www.w3.org/2000/svg" viewBox="0 0 102.96 103.56"><rect x="45.41" y="5.09" width="14.69" height="16.74" rx="7.35" style="fill:none;stroke:#d45831;stroke-linecap:round;stroke-linejoin:round;stroke-width:3.5px"/><path d="M31.25,43l3.1-12.27a7.61,7.61,0,0,1,7.51-3.82c5.25.6,4.77,1.07,8.23,3.7s5.12,4.29,7,5.72,5.8,2.7,7.95,3.3,2.54,4.73.63,6-6.27,1.27-11.86.21c-1.78-.34-2.91-2-6-4.14-1.76-1.24-3-2.19-3-2.19" style="fill:none;stroke:#d45831;stroke-linecap:round;stroke-linejoin:round;stroke-width:3.5px"/><path d="M47.89,41.73l-3,10.56,10.25,5.49s2.39,2.38,2.75,4.89S60.1,77.09,60.1,77.09" style="fill:none;stroke:#d45831;stroke-linecap:round;stroke-linejoin:round;stroke-width:3.5px"/><path d="M65.62,39.06H79.06v8l-4,4L85.14,66.72a24.69,24.69,0,0,1,7.63,4.41c3.57,3.1,4.17,4.17,4.65,6a11.81,11.81,0,0,1,.47,2.62H81.68l-12.76,9.9H43.65l-6.8-7.75H9.79V78.7A14.37,14.37,0,0,1,24.16,64.33H43.05l8.71,19.56H64.15l8.59-12.52-6.32-19-5.11-5.74" style="fill:none;stroke:#d45831;stroke-linecap:round;stroke-linejoin:round;stroke-width:3.5px"/><polyline points="35.66 22.69 37.41 15.16 12.65 10.09 5.07 49.28 27.79 54.2" style="fill:none;stroke:#d45831;stroke-linecap:round;stroke-linejoin:round;stroke-width:3.5px"/><path d="M40.19,44.07,27.56,54.68s-1.43,2.82,0,5.24a13,13,0,0,0,3.69,4.41" style="fill:none;stroke:#d45831;stroke-linecap:round;stroke-linejoin:round;stroke-width:3.5px"/><path d="M34.78,90.9a11.14,11.14,0,0,1-21.63-2.32" style="fill:none;stroke:#d45831;stroke-linecap:round;stroke-linejoin:round;stroke-width:3.5px"/><path d="M97.55,85.31c0,.2,0,.39,0,.59a11.14,11.14,0,0,1-20.89,5.4" style="fill:none;stroke:#d45831;stroke-linecap:round;stroke-linejoin:round;stroke-width:3.5px"/></svg>