<svg id="Layer_1" data-name="Layer 1" xmlns="http://www.w3.org/2000/svg" viewBox="0 0 101.92 101.91"><path d="M94.94,63.09H7a1.52,1.52,0,0,0-1.51,1.52A31.89,31.89,0,0,0,37.31,96.46h27.3A31.88,31.88,0,0,0,96.46,64.61a1.52,1.52,0,0,0-1.52-1.52ZM64.61,93.42H37.31A28.85,28.85,0,0,1,8.53,66.12H93.38a28.84,28.84,0,0,1-28.77,27.3ZM82.81,26.7c0-.11,0-.22,0-.39A6.28,6.28,0,0,0,78.55,21l1.72-1.72a8.11,8.11,0,0,0,.67-10.87,8,8,0,0,0-11.21-1.1c-.19.17-.38.34-.56.52L67.3,9.69a6.32,6.32,0,0,0-5.4-4.23,6.05,6.05,0,0,0-6.38,5.74c0,.11,0,.22,0,.33v2.32a6.1,6.1,0,0,0-3-.81h-.39a6.29,6.29,0,0,0-5.69,6.31v2.07a6.1,6.1,0,0,0-3-.81H43A6.31,6.31,0,0,0,37.3,27V49.45A1.52,1.52,0,0,0,38.82,51H64.61a6.07,6.07,0,0,0,6.06-6.06,5.9,5.9,0,0,0-.82-3H71.9a6.27,6.27,0,0,0,6.35-5.75,6,6,0,0,0-.83-3.4,6,6,0,0,0,5.38-6ZM78.9,28.84a3,3,0,0,1-2.16.89H72.19a1.52,1.52,0,1,0,0,3h.17a3,3,0,0,1,2.86,3.13,3.22,3.22,0,0,1-3.29,2.93H64.61a1.52,1.52,0,1,0,0,3,3,3,0,0,1,0,6.07H40.34v-21a3.23,3.23,0,0,1,2.87-3.27h.17a3,3,0,0,1,3,3h0a1.52,1.52,0,0,0,3,0V19.34a3.24,3.24,0,0,1,2.87-3.27h.17a3,3,0,0,1,3,3,1.52,1.52,0,0,0,3,0V11.36a3,3,0,0,1,3.14-2.87,3.23,3.23,0,0,1,2.92,3.29V13a1.52,1.52,0,0,0,2.6,1.06l4.11-4.17a3.49,3.49,0,0,1,.35-.32,4.92,4.92,0,0,1,6.92.65,5.1,5.1,0,0,1-.44,6.82l-4,4a1.52,1.52,0,0,0,1.07,2.59h1.34a3.23,3.23,0,0,1,3.21,2.86v.17a3,3,0,0,1-.88,2.14ZM73.26,17.15,30.8,59.6l-2.14-2.14L71.11,15Zm-11.69.45h3v7.58h-3Zm-9.1,7.58h3v9.1h-3Zm-9.1,7.58h3V43.37h-3Zm19.72-9.09h7.58v3H63.09ZM54,32.76h9.1v3H54Zm-9.1,9.1H55.51v3H44.89ZM33.77,12.47h0a7,7,0,0,0-9.69-1.93,2,2,0,0,0-.31.22l-.55.41-.52-.38a7,7,0,0,0-9.79.27,7,7,0,0,0,.19,9.86,6.48,6.48,0,0,0,1.28,1l1.28,1v.77a7.58,7.58,0,1,0,15.16,0v-.78l1.35-1a7,7,0,0,0,1.61-9.37Zm-3.46,7L28.37,21a1.51,1.51,0,0,0-.59,1.19v1.52a4.55,4.55,0,0,1-9.1,0V22.15A1.5,1.5,0,0,0,18.1,21l-2-1.52a1.13,1.13,0,0,0-.18-.12,4.17,4.17,0,0,1-.79-.59A3.94,3.94,0,0,1,17.92,12a3.91,3.91,0,0,1,2.74,1.1l.17.14,1.51,1.09a1.5,1.5,0,0,0,1.8,0l1.6-1.2a3.92,3.92,0,0,1,4.55,6.38ZM38.82,7h3v3h-3Zm9.1,48.54h3v3h-3ZM87.36,14.56v3a3,3,0,1,1,0,6.07v3a6.07,6.07,0,1,0,0-12.13ZM8.49,28.22h3v3h-3Zm-3-6.07h3v3h-3ZM64.61,54a6.07,6.07,0,0,0-6.07,6.07h3a3,3,0,1,1,6.07,0h3A6.07,6.07,0,0,0,64.61,54ZM23.66,40.34h-.2a6.06,6.06,0,0,0-11.74,0h-.2a6.08,6.08,0,0,0,0,12.15H23.66a6.07,6.07,0,1,0,0-12.14Zm0,9.1H11.52a3,3,0,0,1,0-6.06H13a1.52,1.52,0,0,0,1.52-1.51,3,3,0,0,1,6.07,0,1.52,1.52,0,0,0,1.51,1.52h1.52a3,3,0,0,1,0,6.07Zm-3,0H14.56A1.52,1.52,0,0,0,13,51V57a1.52,1.52,0,0,0,1.52,1.52h6.07A1.52,1.52,0,0,0,22.14,57V51A1.52,1.52,0,0,0,20.63,49.44Zm-1.52,6.07h-3v-3h3ZM85.84,44.89a4.55,4.55,0,1,0,4.55,4.55A4.57,4.57,0,0,0,85.84,44.89Zm0,6.07a1.52,1.52,0,1,1,1.51-1.51A1.52,1.52,0,0,1,85.84,51Zm0-12.13A10.62,10.62,0,1,0,96.46,49.45,10.63,10.63,0,0,0,85.84,38.83Zm0,18.2a7.59,7.59,0,1,1,7.58-7.58A7.59,7.59,0,0,1,85.84,57Z" style="fill:#d45831"/></svg>