<svg id="Layer_1" data-name="Layer 1" xmlns="http://www.w3.org/2000/svg" viewBox="0 0 140.74 97.62"><rect x="17.5" y="62.41" width="59.65" height="13.65" rx="1.75" style="fill:none;stroke:#d45831;stroke-linejoin:round;stroke-width:3.5px"/><path d="M83.85,17.67H15.44A9.36,9.36,0,0,0,6.08,27v8.09H82.36" style="fill:none;stroke:#d45831;stroke-linejoin:round;stroke-width:3.5px"/><path d="M91.3,50.35H6.08V83.51a9.36,9.36,0,0,0,9.36,9.36h98.67a9.36,9.36,0,0,0,9.36-9.36V54.78" style="fill:none;stroke:#d45831;stroke-linejoin:round;stroke-width:3.5px"/><path d="M82.36,35.12H6.08V50.35H91.3" style="fill:none;stroke:#d45831;stroke-linejoin:round;stroke-width:3.5px"/><circle cx="110.66" cy="28.76" r="24" style="fill:none;stroke:#d45831;stroke-linejoin:round;stroke-width:3.5px"/><rect x="85.08" y="62.41" width="27.8" height="13.65" rx="1.19" style="fill:none;stroke:#d45831;stroke-linejoin:round;stroke-width:3.5px"/><line x1="89.05" y1="69.23" x2="92.05" y2="69.23" style="fill:none;stroke:#d45831;stroke-linejoin:round;stroke-width:3.5px"/><line x1="94.69" y1="69.23" x2="103.92" y2="69.23" style="fill:none;stroke:#d45831;stroke-linejoin:round;stroke-width:3.5px;stroke-dasharray:7.91740083694458,2.6391334533691406"/><line x1="105.24" y1="69.23" x2="108.24" y2="69.23" style="fill:none;stroke:#d45831;stroke-linejoin:round;stroke-width:3.5px"/><polyline points="97.61 26.13 108.6 37.11 125.31 20.4" style="fill:none;stroke:#d45831;stroke-linecap:round;stroke-linejoin:round;stroke-width:3.5px"/></svg>