<svg id="Layer_1" data-name="Layer 1" xmlns="http://www.w3.org/2000/svg" viewBox="0 0 102.11 102.11"><path d="M9.72,79.51a6.33,6.33,0,0,1-.57-2.64V75a152.7,152.7,0,0,1,7.51-47.32h33.8c-1.42,4.45-2.64,9-3.66,13.55l3,.67c1.06-4.78,2.37-9.56,3.89-14.22H57a6.2,6.2,0,0,0,6.18-6.18V16.87a1.54,1.54,0,0,0-1.54-1.55H53.91a6.17,6.17,0,0,1,6.17-6.17h.28a6.2,6.2,0,0,1,6,4.55L68.59,22c.53,2,1,4,1.5,6l3-.7c-.47-2-1-4.09-1.54-6.11l-2.27-8.33a9.28,9.28,0,0,0-8.93-6.82H18.41a9.28,9.28,0,0,0-9.26,9.26v6.17a6.19,6.19,0,0,0,4.36,5.91A155.59,155.59,0,0,0,6.06,75v1.88a9.43,9.43,0,0,0,.85,3.91l2.81-1.27Zm50.36-61.1V21.5a3.09,3.09,0,0,1-6.17,0V18.41ZM12.24,21.5V15.32a6.17,6.17,0,0,1,6.17-6.17H53.18a9.27,9.27,0,0,0-2.36,6.17V21.5a6.16,6.16,0,0,0,.83,3.08H15.32A3.08,3.08,0,0,1,12.24,21.5ZM83.58,47.06l-.7,3c9.37,2.19,12.7,5.11,12.7,6.93,0,1.58-2.23,3.4-6.36,5-.71-2.29-3.61-4.19-8.64-5.65l-.86,3C84,60.56,86.08,62.06,86.3,63c-6.13,1.86-15.09,3.25-26.22,3.25S40,64.87,33.86,63c.31-1.46,4.71-3.93,14.09-5.23l-.43-3.06A45.11,45.11,0,0,0,36,57.64c-2.82,1.23-4.5,2.7-5,4.36-4.13-1.61-6.36-3.43-6.36-5,0-.65.53-3,7.36-5.39,5.2-1.84,12.48-3.14,20.52-3.63l-.19-3.08C44,45.4,36.36,46.75,30.9,48.7c-7.77,2.76-9.4,6-9.4,8.29a26.18,26.18,0,0,0,1.78,9.51l3.12,8,2.88-1.12-3.13-8a27.17,27.17,0,0,1-.88-2.78,29.88,29.88,0,0,0,8.19,3.51c7.13,2.09,16.59,3.23,26.62,3.23s19.49-1.14,26.63-3.22a30.23,30.23,0,0,0,8.18-3.52A24.26,24.26,0,0,1,94,65.38L88.71,79a14,14,0,0,1-2.06,3.59l2.42,1.91a17,17,0,0,0,2.51-4.38l5.3-13.63A26,26,0,0,0,98.66,57c0-5.57-9.44-8.61-15.08-9.93Zm-12.25-12A31.69,31.69,0,0,0,53.88,50.62L49.44,59.5l2.76,1.38L56.64,52a28.49,28.49,0,0,1,14.6-13.54,7,7,0,0,0,.3.88A45.48,45.48,0,0,0,60.68,53.23l-4.54,8.83,2.74,1.41,4.55-8.83a42.42,42.42,0,0,1,10-12.87c.18.13.35.25.54.37a4.78,4.78,0,0,0,.64.32l-1.94,3.61c-1.68,3.15-3.41,6.4-5.2,9.78L64,62.45l2.73,1.44,3.5-6.6q2.67-5.07,5.2-9.76l2.28-4.28a28.09,28.09,0,0,1-3.41,15.21l-2.17,4,2.72,1.48,2.16-4a31.27,31.27,0,0,0,3.69-18.13,5.92,5.92,0,0,0,1.56-1.71L94.53,20a6,6,0,1,0-10.32-6.3L71.93,33.8a6.07,6.07,0,0,0-.6,1.32Zm3.24.3,12.28-20.1a3,3,0,1,1,5.05,3.08h0L79.62,38.49a3,3,0,1,1-5.05-3.08ZM82.9,83.6a5.82,5.82,0,0,0-4.42-1.49L77,82.25a10.79,10.79,0,0,0-9.22-5.19H23a10.81,10.81,0,0,0-9.23,5.19l-1.45-.14a5.77,5.77,0,0,0-1,11.5,4.71,4.71,0,0,0,.53,0,4.53,4.53,0,0,0,.52,0l1.45-.13A10.89,10.89,0,0,0,23,98.67H67.8A10.83,10.83,0,0,0,77,93.48l1.46.13a4.41,4.41,0,0,0,.52,0,5.78,5.78,0,0,0,3.89-10ZM12.08,90.54a2.69,2.69,0,0,1-.49-5.35h.49l9.29.85a1.83,1.83,0,0,1,0,3.65Zm5.35,2.61,4.22-.38a4.92,4.92,0,0,0,0-9.81l-4.23-.39s.1-.11.16-.16a7.72,7.72,0,1,1-.16,10.74Zm55.82.17a7.63,7.63,0,0,1-5.45,2.26H30.59a10.77,10.77,0,0,0,.19-15.24c-.06-.07-.13-.13-.19-.19H67.8a7.71,7.71,0,0,1,5.45,13.17ZM79,90.55h-.25l-.48,0a10.89,10.89,0,0,0,0-5.26l.48,0a2.69,2.69,0,0,1,.49,5.35Z" style="fill:#d45831"/></svg>