<svg id="Layer_1" data-name="Layer 1" xmlns="http://www.w3.org/2000/svg" viewBox="0 0 91.82 103.7"><path d="M15.82,36.55H75.35a4.73,4.73,0,0,1,4.73,4.73V90a0,0,0,0,1,0,0h-69a0,0,0,0,1,0,0V41.28A4.73,4.73,0,0,1,15.82,36.55Z" style="fill:none;stroke:#d45831;stroke-linecap:round;stroke-linejoin:round;stroke-width:3.5px"/><rect x="4.99" y="90.24" width="81.84" height="8.3" style="fill:none;stroke:#d45831;stroke-linecap:round;stroke-linejoin:round;stroke-width:3.5px"/><rect x="33.05" y="62.86" width="27.07" height="27.07" style="fill:none;stroke:#d45831;stroke-linecap:round;stroke-linejoin:round;stroke-width:3.5px"/><line x1="27.09" y1="62.86" x2="65.48" y2="62.86" style="fill:none;stroke:#d45831;stroke-linecap:round;stroke-linejoin:round;stroke-width:3.5px"/><line x1="46.59" y1="75.76" x2="46.59" y2="62.86" style="fill:none;stroke:#d45831;stroke-linecap:round;stroke-linejoin:round;stroke-width:3.5px"/><path d="M64.2,13.46A11.08,11.08,0,0,1,75.28,24.55v12H16.4v-12A11.09,11.09,0,0,1,27.49,13.46" style="fill:none;stroke:#d45831;stroke-linecap:round;stroke-linejoin:round;stroke-width:3.5px"/><path d="M31.72,5.16H37.3l1.05,6.09,2.47,14.27a4.38,4.38,0,0,0,4.32,3.63h9.28" style="fill:none;stroke:#d45831;stroke-linecap:round;stroke-linejoin:round;stroke-width:3.5px"/><polyline points="59.96 11.26 56.49 24.09 40.58 24.09" style="fill:none;stroke:#d45831;stroke-linecap:round;stroke-linejoin:round;stroke-width:3.5px"/></svg>