<svg id="Layer_1" data-name="Layer 1" xmlns="http://www.w3.org/2000/svg" viewBox="0 0 96.12 100.85"><path d="M10.2,81.59a4.85,4.85,0,0,1-4.85-4.85V12.4A4.85,4.85,0,0,1,10.2,7.55H85.91a4.85,4.85,0,0,1,4.85,4.85V76.74a4.85,4.85,0,0,1-4.85,4.85" style="fill:none;stroke:#d45831;stroke-linecap:round;stroke-linejoin:round;stroke-width:3px"/><line x1="6.39" y1="20.73" x2="90.76" y2="20.73" style="fill:none;stroke:#d45831;stroke-linecap:round;stroke-linejoin:round;stroke-width:3px"/><line x1="12.98" y1="14.52" x2="16.08" y2="14.52" style="fill:none;stroke:#d45831;stroke-linecap:round;stroke-linejoin:round;stroke-width:3px"/><line x1="21.76" y1="14.52" x2="24.86" y2="14.52" style="fill:none;stroke:#d45831;stroke-linecap:round;stroke-linejoin:round;stroke-width:3px"/><line x1="30.68" y1="14.52" x2="33.78" y2="14.52" style="fill:none;stroke:#d45831;stroke-linecap:round;stroke-linejoin:round;stroke-width:3px"/><circle cx="48.7" cy="65.63" r="31.72" style="fill:none;stroke:#d45831;stroke-linecap:round;stroke-linejoin:round;stroke-width:3px"/><ellipse cx="48.7" cy="65.63" rx="17.9" ry="31.72" style="fill:none;stroke:#d45831;stroke-linecap:round;stroke-linejoin:round;stroke-width:3px"/><path d="M23.68,48.81c8.14,6.07,39.54,7.62,49.75,0" style="fill:none;stroke:#d45831;stroke-linecap:round;stroke-linejoin:round;stroke-width:3px"/><path d="M24.7,84.37c8.14-6.07,39.54-7.62,49.75,0" style="fill:none;stroke:#d45831;stroke-linecap:round;stroke-linejoin:round;stroke-width:3px"/><line x1="17.89" y1="67.63" x2="80.43" y2="67.63" style="fill:none;stroke:#d45831;stroke-linecap:round;stroke-linejoin:round;stroke-width:3px"/><line x1="49.42" y1="34.9" x2="49.42" y2="97.35" style="fill:none;stroke:#d45831;stroke-linecap:round;stroke-linejoin:round;stroke-width:3px"/></svg>